# File created by Blade
# Date/Time:  Fri Jan 16 17:45:47 2015
#---------------------------------------------------------
:version 1.10
:name HOM
:units
  mass 1.0
  length 1.000000
  angle deg
:documentation
     Acclaim Skeleton File
:root
   axis xyz
   order TX TY TZ RX RY RZ
   position 0.000000 0.000000 0.000000
   orientation 0 0 0
:bonedata
   begin
      id 1
      name Spine_dum
      direction 0.000000 1.000000 0.000000
      length 7.170412
      axis 0.0 0.0 0.0 xyz
   end
   begin
      id 2
      name LeftUpLeg_dum
      direction 1.000000 0.000000 0.000000
      length 4.318350
      axis 0.0 0.0 0.0 xyz
   end
   begin
      id 3
      name RightUpLeg_dum
      direction -1.000000 0.000000 0.000000
      length 4.318350
      axis 0.0 0.0 0.0 xyz
   end
   begin
      id 4
      name Spine
      direction 0.000000 1.000000 0.000000
      length 0.000000
      axis 0.0 0.0 0.0 xyz
      dof rx ry rz
   end
   begin
      id 5
      name Spine_dum1
      direction 0.000000 1.000000 0.000000
      length 14.276153
      axis 0.0 0.0 0.0 xyz
   end
   begin
      id 6
      name Spine_dum2
      direction 0.000000 1.000000 0.000000
      length 10.718243
      axis 0.0 0.0 0.0 xyz
   end
   begin
      id 7
      name Spine_dum3
      direction 0.000000 1.000000 0.000000
      length 10.718243
      axis 0.0 0.0 0.0 xyz
   end
   begin
      id 8
      name Head
      direction 0.000000 1.000000 0.000000
      length 4.527550
      axis 0.0 0.0 0.0 xyz
      dof rx ry rz
   end
   begin
      id 9
      name LeftShoulder
      direction 1.000000 0.000000 0.000000
      length 7.058872
      axis 0.0 0.0 -90.0 xyz
      dof rx ry rz
   end
   begin
      id 10
      name LeftArm
      direction 1.000000 0.000000 0.000000
      length 10.955525
      axis 0.0 0.0 -90.0 xyz
      dof rx ry rz
   end
   begin
      id 11
      name LeftForeArm
      direction 1.000000 0.000000 0.000000
      length 8.193716
      axis 0.0 0.0 -90.0 xyz
      dof ry rz rx
   end
   begin
      id 12
      name LeftHand
      direction 0.000000 0.000000 0.000000
      length 0.000000
      axis 0.0 0.0 -90.0 xyz
      dof rx ry rz
   end
   begin
      id 13
      name LeftHand_dum1
      direction 0.000000 0.000000 0.000000
      length 0.000000
      axis 0.0 0.0 -90.0 xyz
   end
   begin
      id 14
      name LeftHand_dum2
      direction 1.000000 0.000000 0.000000
      length 3.937000
      axis 0.0 0.0 -90.0 xyz
   end
   begin
      id 15
      name LeftHandThumb1
      direction 0.000000 0.000000 1.000000
      length 3.937000
      axis 0.0 0.0 -90.0 xyz
      dof rx rz ry
   end
   begin
      id 16
      name RightShoulder
      direction -1.000000 0.000000 0.000000
      length 7.058872
      axis 0.0 0.0 90.0 xyz
      dof rx ry rz
   end
   begin
      id 17
      name RightArm
      direction -1.000000 0.000000 0.000000
      length 10.955525
      axis 0.0 0.0 90.0 xyz
      dof rx ry rz
   end
   begin
      id 18
      name RightForeArm
      direction -1.000000 0.000000 0.000000
      length 8.193716
      axis 0.0 0.0 90.0 xyz
      dof ry rz rx
   end
   begin
      id 19
      name RightHand
      direction 0.000000 0.000000 0.000000
      length 0.000000
      axis 0.0 0.0 90.0 xyz
      dof rx ry rz
   end
   begin
      id 20
      name RightHand_dum1
      direction 0.000000 0.000000 0.000000
      length 0.000000
      axis 0.0 0.0 90.0 xyz
   end
   begin
      id 21
      name RightHand_dum2
      direction -1.000000 0.000000 0.000000
      length 3.937000
      axis 0.0 0.0 90.0 xyz
   end
   begin
      id 22
      name RightHandThumb1
      direction 0.000000 0.000000 1.000000
      length 3.937000
      axis 0.0 0.0 90.0 xyz
      dof rx rz ry
   end
   begin
      id 23
      name LeftUpLeg
      direction 0.000000 -1.000000 0.000000
      length 17.323638
      axis 0.0 0.0 0.0 xyz
      dof rx ry rz
   end
   begin
      id 24
      name LeftLeg
      direction 0.000000 -1.000000 0.000000
      length 16.270368
      axis 0.0 0.0 0.0 xyz
      dof rx ry rz
   end
   begin
      id 25
      name LeftFoot
      direction 0.000000 -0.258819 0.965926
      length 4.922846
      axis 15.0 0.0 0.0 xyz
      dof rx ry rz
   end
   begin
      id 26
      name LeftToeBase
      direction 0.000000 0.000000 1.000000
      length 2.952750
      axis 0.0 0.0 0.0 xyz
      dof rx ry rz
   end
   begin
      id 27
      name RightUpLeg
      direction 0.000000 -1.000000 0.000000
      length 17.323638
      axis 0.0 0.0 0.0 xyz
      dof rx ry rz
   end
   begin
      id 28
      name RightLeg
      direction 0.000000 -1.000000 0.000000
      length 16.270368
      axis 0.0 0.0 0.0 xyz
      dof rx ry rz
   end
   begin
      id 29
      name RightFoot
      direction 0.000000 -0.258819 0.965926
      length 4.922846
      axis 15.0 0.0 0.0 xyz
      dof rx ry rz
   end
   begin
      id 30
      name RightToeBase
      direction 0.000000 0.000000 1.000000
      length 2.952750
      axis 0.0 0.0 0.0 xyz
      dof rx ry rz
   end
:hierarchy
   begin
      root Spine_dum LeftUpLeg_dum RightUpLeg_dum
      Spine_dum Spine
      LeftUpLeg_dum LeftUpLeg
      RightUpLeg_dum RightUpLeg
      Spine Spine_dum1 Spine_dum2 Spine_dum3
      Spine_dum1 Head
      Spine_dum2 LeftShoulder
      Spine_dum3 RightShoulder
      LeftShoulder LeftArm
      LeftArm LeftForeArm
      LeftForeArm LeftHand
      LeftHand LeftHand_dum1 LeftHand_dum2
      LeftHand_dum1 LeftHandThumb1
      RightShoulder RightArm
      RightArm RightForeArm
      RightForeArm RightHand
      RightHand RightHand_dum1 RightHand_dum2
      RightHand_dum1 RightHandThumb1
      LeftUpLeg LeftLeg
      LeftLeg LeftFoot
      LeftFoot LeftToeBase
      RightUpLeg RightLeg
      RightLeg RightFoot
      RightFoot RightToeBase
   end

# File created by Blade
# Date/Time:  Fri Jan 16 17:45:28 2015
# Frame Rate: 120.000 fps
#------------------------------------------------------
:FULLY-SPECIFIED
:DEGREES
1667
root -5.441226 35.282831 -10.482898 -3.639822 -7.820765 -5.839369
Spine 0.963391 1.392069 10.998882
Head 4.473269 4.614132 -10.840847
LeftShoulder -19.114591 14.254112 -18.329352
LeftArm 20.428873 3.062670 -72.890467
LeftForeArm 4.115851 -0.000000 12.027054
LeftHand 1.983376 -0.000000 -6.617389
LeftHandThumb1 -26.253704 0.000000 33.147579
RightShoulder 3.187755 0.969022 3.563511
RightArm 1.335860 21.501339 73.692743
RightForeArm -4.809919 0.000000 99.323493
RightHand 8.320496 0.000000 4.039239
RightHandThumb1 -24.326973 -0.000000 -32.862282
LeftUpLeg 13.100032 16.899673 7.934267
LeftLeg -8.336282 -0.000000 0.000000
LeftFoot -15.388428 27.155384 -8.554352
LeftToeBase 22.792938 -0.000000 -0.000000
RightUpLeg 9.029554 -3.132328 4.111868
RightLeg -4.236121 -0.000000 0.000000
RightFoot -3.309859 -26.505977 3.016520
RightToeBase 13.675790 -0.000000 -0.000000
1668
root -5.439834 35.282549 -10.482150 -3.634205 -7.782748 -5.844486
Spine 0.952697 1.417411 10.990987
Head 4.515388 4.581200 -10.856348
LeftShoulder -19.104837 14.243263 -18.302459
LeftArm 20.425734 3.076523 -72.884052
LeftForeArm 4.096491 0.000000 11.999574
LeftHand 1.983244 -0.000000 -6.666566
LeftHandThumb1 -26.253704 0.000000 33.147579
RightShoulder 3.207292 1.078795 3.588744
RightArm 1.074415 23.918146 73.880538
RightForeArm -4.212949 -0.000000 99.239585
RightHand 8.328881 -0.000000 3.622535
RightHandThumb1 -24.326973 -0.000000 -32.862282
LeftUpLeg 13.088421 16.897542 7.935567
LeftLeg -8.342431 -0.000000 0.000000
LeftFoot -15.373932 27.145539 -8.525339
LeftToeBase 22.793153 -0.000000 -0.000000
RightUpLeg 9.034027 -3.181093 4.110978
RightLeg -4.250538 -0.000000 0.000000
RightFoot -3.299224 -26.501119 3.024642
RightToeBase 13.644833 -0.000000 -0.000000
1669
root -5.435827 35.282117 -10.480446 -3.620997 -7.750169 -5.847374
Spine 0.928914 1.485073 11.003195
Head 4.568007 4.536818 -10.900463
LeftShoulder -19.057859 14.246792 -18.287150
LeftArm 20.402159 3.038242 -72.898351
LeftForeArm 4.106403 0.000000 11.994877
LeftHand 1.966761 -0.000000 -6.686303
LeftHandThumb1 -26.253704 0.000000 33.147579
RightShoulder 3.187827 1.176668 3.577567
RightArm 0.820405 26.249933 74.089964
RightForeArm -3.970876 -0.000000 99.147686
RightHand 8.350023 -0.000000 2.752813
RightHandThumb1 -24.326973 -0.000000 -32.862282
LeftUpLeg 13.073746 16.893921 7.927163
LeftLeg -8.352962 -0.000000 0.000000
LeftFoot -15.370165 27.128010 -8.502783
LeftToeBase 22.788763 -0.000000 -0.000000
RightUpLeg 9.032154 -3.229087 4.102623
RightLeg -4.265804 -0.000000 0.000000
RightFoot -3.295172 -26.482569 3.030947
RightToeBase 13.610147 -0.000000 -0.000000
1670
root -5.434346 35.281858 -10.479430 -3.605361 -7.711171 -5.852577
Spine 0.905479 1.540198 10.994302
Head 4.594149 4.535973 -10.863963
LeftShoulder -19.019061 14.239685 -18.251797
LeftArm 20.374631 3.023693 -72.907069
LeftForeArm 4.108073 -0.000000 11.992575
LeftHand 1.980713 -0.000000 -6.639511
LeftHandThumb1 -26.253704 0.000000 33.147579
RightShoulder 3.147642 1.236545 3.606089
RightArm 0.615359 28.544100 74.227361
RightForeArm -3.524787 0.000000 99.045889
RightHand 8.286989 -0.000000 1.929835
RightHandThumb1 -24.326973 -0.000000 -32.862282
LeftUpLeg 13.051023 16.889554 7.924592
LeftLeg -8.357821 -0.000000 0.000000
LeftFoot -15.360214 27.110019 -8.477551
LeftToeBase 22.817510 -0.000000 -0.000000
RightUpLeg 9.031653 -3.253711 4.101624
RightLeg -4.285241 -0.000000 0.000000
RightFoot -3.302718 -26.479751 3.073530
RightToeBase 13.648626 -0.000000 -0.000000
1671
root -5.432275 35.281878 -10.477946 -3.591310 -7.673105 -5.851834
Spine 0.887069 1.607744 10.984961
Head 4.619085 4.512297 -10.863582
LeftShoulder -18.977231 14.234378 -18.232140
LeftArm 20.348193 3.007303 -72.900315
LeftForeArm 4.101341 -0.000000 12.013502
LeftHand 1.960205 0.000000 -6.624851
LeftHandThumb1 -26.253704 0.000000 33.147579
RightShoulder 3.081104 1.306783 3.615757
RightArm 0.402546 30.790126 74.331104
RightForeArm -3.225935 -0.000000 98.933455
RightHand 8.226147 -0.000000 1.051388
RightHandThumb1 -24.326973 -0.000000 -32.862282
LeftUpLeg 13.034103 16.887360 7.915063
LeftLeg -8.369625 -0.000000 0.000000
LeftFoot -15.345612 27.095523 -8.467861
LeftToeBase 22.813711 -0.000000 -0.000000
RightUpLeg 9.029061 -3.297155 4.098339
RightLeg -4.303835 -0.000000 0.000000
RightFoot -3.290169 -26.493177 3.058227
RightToeBase 13.648611 -0.000000 -0.000000
1672
root -5.428956 35.281535 -10.476421 -3.581552 -7.632864 -5.848312
Spine 0.877522 1.648215 10.979365
Head 4.631468 4.510326 -10.875616
LeftShoulder -18.940072 14.210400 -18.209195
LeftArm 20.302155 2.970183 -72.910276
LeftForeArm 4.131915 -0.000000 12.032758
LeftHand 1.985505 -0.000000 -6.625697
LeftHandThumb1 -26.253704 0.000000 33.147579
RightShoulder 3.018543 1.350111 3.619183
RightArm 0.233281 33.020214 74.437977
RightForeArm -2.897832 0.000000 98.799899
RightHand 8.201904 -0.000000 0.176500
RightHandThumb1 -24.326973 -0.000000 -32.862282
LeftUpLeg 13.013316 16.866496 7.899517
LeftLeg -8.369932 -0.000000 0.000000
LeftFoot -15.334347 27.093834 -8.441519
LeftToeBase 22.810339 -0.000000 -0.000000
RightUpLeg 9.025276 -3.357576 4.083646
RightLeg -4.307537 -0.000000 0.000000
RightFoot -3.285785 -26.476441 3.045479
RightToeBase 13.602100 -0.000000 -0.000000
1673
root -5.427603 35.281307 -10.474236 -3.576292 -7.583331 -5.842662
Spine 0.870011 1.678714 10.957588
Head 4.641987 4.516246 -10.865161
LeftShoulder -18.897821 14.220382 -18.184416
LeftArm 20.282178 2.910278 -72.912859
LeftForeArm 4.151844 -0.000000 12.064601
LeftHand 1.969656 -0.000000 -6.701823
LeftHandThumb1 -26.253704 0.000000 33.147579
RightShoulder 2.926578 1.395308 3.633360
RightArm 0.067225 35.176897 74.540337
RightForeArm -2.566428 -0.000000 98.662713
RightHand 8.198371 -0.000000 -0.822256
RightHandThumb1 -24.326973 -0.000000 -32.862282
LeftUpLeg 12.993585 16.828413 7.885360
LeftLeg -8.362323 -0.000000 0.000000
LeftFoot -15.341654 27.090786 -8.444499
LeftToeBase 22.820497 -0.000000 -0.000000
RightUpLeg 9.030605 -3.407881 4.074062
RightLeg -4.318516 -0.000000 0.000000
RightFoot -3.298890 -26.478494 3.042963
RightToeBase 13.657364 -0.000000 -0.000000
1674
root -5.426530 35.280422 -10.466112 -3.573760 -7.478532 -5.833660
Spine 0.833171 1.636856 10.921801
Head 4.670018 4.541712 -10.842113
LeftShoulder -18.898645 14.255092 -18.169213
LeftArm 20.269827 2.894688 -72.913913
LeftForeArm 4.169747 -0.000000 12.105396
LeftHand 1.985271 -0.000000 -6.616704
LeftHandThumb1 -26.253704 0.000000 33.147579
RightShoulder 2.831584 1.419541 3.666106
RightArm -0.185908 37.154281 74.435239
RightForeArm -2.232999 0.000000 98.521984
RightHand 8.052395 -0.000000 -1.939820
RightHandThumb1 -24.326973 -0.000000 -32.862282
LeftUpLeg 12.986476 16.767288 7.868087
LeftLeg -8.383063 -0.000000 0.000000
LeftFoot -15.318047 27.048275 -8.431517
LeftToeBase 22.808431 -0.000000 -0.000000
RightUpLeg 9.071429 -3.525110 4.053780
RightLeg -4.372015 -0.000000 0.000000
RightFoot -3.292841 -26.477927 3.061795
RightToeBase 13.622427 -0.000000 -0.000000
1675
root -5.427009 35.279947 -10.465997 -3.565416 -7.535979 -5.822393
Spine 0.855292 1.744403 10.893823
Head 4.654000 4.571886 -10.835525
LeftShoulder -18.881515 14.274490 -18.156098
LeftArm 20.281458 2.862321 -72.902538
LeftForeArm 4.177567 -0.000000 12.125832
LeftHand 2.003465 -0.000000 -6.621267
LeftHandThumb1 -26.253704 0.000000 33.147579
RightShoulder 2.702464 1.488851 3.663597
RightArm -0.325164 39.224274 74.503279
RightForeArm -1.827995 -0.000000 98.299749
RightHand 8.014380 -0.000000 -2.572942
RightHandThumb1 -24.326973 -0.000000 -32.862282
LeftUpLeg 12.980735 16.583355 7.825067
LeftLeg -8.364766 -0.000000 0.000000
LeftFoot -15.385772 27.247135 -8.527328
LeftToeBase 22.802271 -0.000000 -0.000000
RightUpLeg 9.041701 -3.453602 4.052012
RightLeg -4.335422 -0.000000 0.000000
RightFoot -3.315237 -26.497788 3.020798
RightToeBase 13.663798 -0.000000 -0.000000
1676
root -5.423861 35.278684 -10.472070 -3.501376 -7.549270 -5.798423
Spine 0.814335 1.794730 10.861283
Head 4.628951 4.679012 -10.827526
LeftShoulder -18.883185 14.271917 -18.156023
LeftArm 20.271116 2.840725 -72.887547
LeftForeArm 4.164917 -0.000000 12.158224
LeftHand 2.015378 -0.000000 -6.628012
LeftHandThumb1 -26.253704 0.000000 33.147579
RightShoulder 2.597597 1.554658 3.673752
RightArm -0.523624 41.096273 74.434671
RightForeArm -1.538644 -0.000000 98.094091
RightHand 7.931044 -0.000000 -4.077869
RightHandThumb1 -24.326973 -0.000000 -32.862282
LeftUpLeg 12.891499 16.590504 7.772245
LeftLeg -8.340026 -0.000000 0.000000
LeftFoot -15.402689 27.260582 -8.535271
LeftToeBase 22.787612 -0.000000 -0.000000
RightUpLeg 8.940999 -3.419469 4.033415
RightLeg -4.288692 -0.000000 0.000000
RightFoot -3.342433 -26.525677 2.960729
RightToeBase 13.723753 -0.000000 -0.000000
1677
root -5.422363 35.279646 -10.463016 -3.557479 -7.440677 -5.815749
Spine 0.871873 1.687134 10.882368
Head 4.608382 4.745999 -10.885025
LeftShoulder -18.877971 14.274295 -18.171838
LeftArm 20.251600 2.823038 -72.873455
LeftForeArm 4.128591 0.000000 12.198495
LeftHand 2.018551 -0.000000 -6.608420
LeftHandThumb1 -26.253704 0.000000 33.147579
RightShoulder 2.474273 1.664592 3.644303
RightArm -0.656312 43.100798 74.490471
RightForeArm -0.883950 -0.000000 97.867647
RightHand 7.828654 0.000000 -4.885497
RightHandThumb1 -24.326973 -0.000000 -32.862282
LeftUpLeg 12.940937 16.489248 7.796226
LeftLeg -8.346797 -0.000000 0.000000
LeftFoot -15.384243 27.249515 -8.511859
LeftToeBase 22.776260 -0.000000 -0.000000
RightUpLeg 9.041958 -3.529295 4.034999
RightLeg -4.334015 -0.000000 0.000000
RightFoot -3.335395 -26.530478 3.031152
RightToeBase 13.659083 -0.000000 -0.000000
